<?xml version="1.0" encoding="UTF-8"?>
<!-- Generated by Pixelmator Pro 3.4.1 -->
<svg width="306" height="368" viewBox="0 0 306 368" xmlns="http://www.w3.org/2000/svg">
    <g id="Group">
        <path id="Path" fill="#000000" stroke="#000000" stroke-width="15" d="M 69.76416 327.608215 C 69.76416 327.608215 66.9095 329.318634 66 331 C 65.18811 332.500916 62.286545 335.228302 62 338 C 61.587646 341.988525 62.712662 342.778656 62.712662 342.778656 C 62.712662 342.778656 37.756706 335.16394 37 330 C 35.438309 319.342651 50.356476 307.167847 50.356476 307.167847 C 50.356476 307.167847 58.945786 318.312927 62.44101 321.525543 C 65.277069 324.132324 69.76416 327.608215 69.76416 327.608215 Z"/>
        <path id="Path-copy-2" fill="#000000" stroke="#000000" stroke-width="15" d="M 236.885422 327.608215 C 236.885422 327.608215 239.740082 329.318634 240.649582 331 C 241.461472 332.500916 244.363037 335.228302 244.649582 338 C 245.061935 341.988525 243.93692 342.778656 243.93692 342.778656 C 243.93692 342.778656 268.892883 335.16394 269.649567 330 C 271.211273 319.342651 256.293091 307.167847 256.293091 307.167847 C 256.293091 307.167847 247.703796 318.312927 244.208572 321.525543 C 241.372513 324.132324 236.885422 327.608215 236.885422 327.608215 Z"/>
        <path id="path1" fill="#000000" stroke="#000000" stroke-width="15" d="M 85.439987 108.112274 C 82.700043 111.218475 68.425186 123.422791 63.645325 126.883087 C 57.01622 131.682129 49.776001 154 49.776001 154 C 49.776001 154 48.308167 137.705414 46 136 C 40.115227 131.651978 28 134 28 134 C 28 134 36.057587 122.919647 46 115 C 51.353607 110.735596 63.126419 108.087097 65 107 C 69.900574 104.156586 97 101 97 101 C 97 101 86.022018 107.452454 85.439987 108.112274 Z"/>
        <path id="Path-copy" fill="#000000" stroke="#000000" stroke-width="15" d="M 220.560013 108.112274 C 223.299957 111.218475 237.574814 123.422791 242.354675 126.883087 C 248.98378 131.682129 256.223999 154 256.223999 154 C 256.223999 154 257.691833 137.705414 260 136 C 265.884766 131.651978 278 134 278 134 C 278 134 269.942413 122.919647 260 115 C 254.646393 110.735596 242.873581 108.087097 241 107 C 236.099426 104.156586 209 101 209 101 C 209 101 219.977982 107.452454 220.560013 108.112274 Z"/>
        <path id="path2" fill="#000000" stroke="#000000" stroke-width="15" d="M 182 52 C 182.731812 57.507111 182.498291 69.961945 182 76 C 181.616455 80.647614 189 91 189 91 C 189 91 166.951065 84 154 84 C 139.88913 84 119 91 119 91 C 119 91 126.154724 80.74292 126 76 C 125.79863 69.827148 125.007217 56.630249 126 52 C 129.143845 37.337524 139.309235 21 154 21 C 173.329956 21 179.894165 36.152832 182 52 Z"/>
        <path id="path3" fill="none" stroke="#000000" stroke-width="15" d="M 268.5 211.5 C 268.5 280.535583 212.625336 338.873962 154 339 C 95.15712 339.126526 38.5 280.535583 38.5 211.5 C 38.5 142.464417 89.987259 86.5 153.5 86.5 C 217.012756 86.5 268.5 142.464417 268.5 211.5 Z"/>
        <path id="path4" fill="#000000" stroke="#000000" stroke-width="15" d="M 181 235.697525 C 181 241.915833 176.51796 247.624832 174 253 C 167.979065 265.853027 163.155121 263.48056 154.323074 264.728271 C 147.415039 265.704224 137.170807 263.887756 135.49231 254.52829 C 134.101639 246.773834 130 244.672089 130 236.482132 C 130 221.315552 139.156494 227.851364 154.323074 227.851364 C 169.489655 227.851364 181 220.530945 181 235.697525 Z"/>
        <path id="Path-copy-3" fill="#000000" stroke="#000000" stroke-width="15" d="M 84.684586 272.599976 C 87.860428 278.007782 103.911659 295 110.539078 295 C 117.166496 295 110.539078 278.072479 110.539078 267.799988 C 110.539078 257.527496 102.766487 255.00943 96.139069 254.999985 C 91.288368 254.993073 79.165077 255.468124 77.484581 259 C 76.410164 261.258057 82.6558 269.145386 84.684586 272.599976 Z"/>
        <path id="Path-copy-8" fill="#000000" stroke="#000000" stroke-width="15" d="M 222.161316 272.599976 C 218.985458 278.007782 202.934235 295 196.306824 295 C 189.679398 295 196.306824 278.072479 196.306824 267.799988 C 196.306824 257.527496 204.079407 255.00943 210.706818 254.999985 C 215.557526 254.993073 227.680817 255.468124 229.361313 259 C 230.43573 261.258057 224.190094 269.145386 222.161316 272.599976 Z"/>
        <path id="path5" fill="#000000" stroke="#000000" stroke-width="15" d="M 165.410782 292.819885 C 164.864258 299.687134 165.119751 306.831085 163 311 C 161.157059 314.624512 155.724518 315 153 315 C 150.212128 315 145.385666 314.533264 143 311 C 140.602737 307.449524 143.27919 297.70517 142 294 C 139.744308 287.466431 147.66394 291 154 291 C 160.336075 291 165.834167 287.499878 165.410782 292.819885 Z"/>
        <path id="path6" fill="#000000" stroke="#000000" stroke-width="15" d="M 100.12632 215.647919 C 100.12632 219.003006 99.043106 224.356598 97.87635 226.147766 C 96.188019 228.739685 85.231903 229.52272 81.564095 229.52272 C 77.338135 229.52272 72.017021 233.652603 69.37677 231.39769 C 67.035408 229.398056 67.126801 221.193054 67.126801 218.272888 C 67.126801 212.059769 72.653107 208.898026 80.626602 208.898026 C 88.600105 208.898026 100.12632 209.434814 100.12632 215.647919 Z"/>
        <path id="Path-copy-5" fill="#000000" stroke="#000000" stroke-width="15" d="M 208.999359 216.707794 C 208.999359 219.684509 211.642746 225.099731 212.8367 226.688919 C 214.564392 228.988525 224.89006 227.79393 228.186066 229.350555 C 231.577866 230.952423 233.926437 234.678207 236.62822 232.677597 C 239.024139 230.903458 242 220.962158 242 218.371307 C 242 212.858887 236.34491 210.053696 228.185577 210.053696 C 220.02626 210.053696 208.999359 211.195358 208.999359 216.707794 Z"/>
        <path id="Path-copy-6" fill="#000000" stroke="#000000" stroke-width="15" d="M 77.909355 160.126022 C 75.418396 165.199326 69.536957 176.645386 71.430832 179.5616 C 73.046928 182.050079 84.324814 180.371414 89.246773 180.371414 C 93.374886 180.371414 104.441017 186.529694 107.062714 182.800858 C 109.482719 179.358871 107.54203 166.195938 111.111794 162.555466 C 114.19632 159.409851 104.085808 140.079681 98.964561 137.451187 C 95.05378 135.44397 78.917915 158.071899 77.909355 160.126022 Z"/>
        <path id="Path-copy-7" fill="#000000" stroke="#000000" stroke-width="15" d="M 227.837921 160.126022 C 230.328888 165.199326 236.210327 176.645386 234.316452 179.5616 C 232.700348 182.050079 221.42247 180.371414 216.500504 180.371414 C 212.372391 180.371414 201.306259 186.529694 198.68457 182.800858 C 196.264557 179.358871 198.205246 166.195938 194.635483 162.555466 C 191.550964 159.409851 201.661469 140.079681 206.782715 137.451187 C 210.693497 135.44397 226.829361 158.071899 227.837921 160.126022 Z"/>
        <path id="path7" fill="#000000" stroke="#000000" stroke-width="15" d="M 169.615814 182.386398 C 169.615814 186.935562 172.597 194.231796 169.615814 197.213013 C 166.634613 200.194229 156.867279 199.684113 152.3181 199.684113 C 146.859085 199.684113 142.13652 201.30246 139.138885 197.213013 C 137.140457 194.486725 136.66777 186.025742 136.66777 182.386398 C 136.66777 173.288071 144.455307 168.383484 153.55365 168.383484 C 162.651993 168.383484 169.615814 173.288071 169.615814 182.386398 Z"/>
        <path id="Path-copy-4" fill="#000000" stroke="#000000" stroke-width="15" d="M 175.264526 134.86879 C 173.755539 138.368576 173.521011 143.268112 171.43071 144.069946 C 168.295303 145.272705 161.24913 141.384613 153.795151 141.002899 C 145.64328 140.585449 139.696243 145.319962 136.926361 144.069946 C 134.527847 142.987534 131.970108 136.976181 130.792252 134.86879 C 128.640823 131.019516 124.159271 127.827621 126.191673 124.900864 C 128.998322 120.859192 148.116119 118 153.028381 118 C 157.178421 118 173.84079 120.91835 177.564819 122.600586 C 184.665268 125.808029 177.200897 130.377747 175.264526 134.86879 Z"/>
    </g>
</svg>
