<svg fill="none" height="422" viewBox="0 0 422 422" width="422" xmlns="http://www.w3.org/2000/svg"><circle cx="211" cy="211" fill="#fff" r="211"/><g fill="#000"><path clip-rule="evenodd" d="m123.262 353.5c.909-1.681 3.764-3.392 3.764-3.392s-4.487-3.476-7.323-6.082c-3.495-3.213-12.085-14.358-12.085-14.358s-14.9179 12.175-13.3562 22.832c.7567 5.164 25.7122 12.779 25.7122 12.779s-1.125-.79-.712-4.779c.2-1.936 1.675-3.85 2.824-5.339.496-.644.931-1.208 1.176-1.661zm174.649 0c-.909-1.681-3.764-3.392-3.764-3.392s4.487-3.476 7.323-6.082c3.496-3.213 12.085-14.358 12.085-14.358s14.918 12.175 13.356 22.832c-.756 5.164-25.712 12.779-25.712 12.779s1.125-.79.712-4.779c-.2-1.936-1.675-3.85-2.824-5.339-.496-.644-.931-1.208-1.176-1.661z" fill-rule="evenodd"/><path clip-rule="evenodd" d="m120.907 149.383c4.78-3.46 19.055-15.665 21.795-18.771.582-.66 11.56-7.112 11.56-7.112s-27.1 3.157-32 6c-.57.331-2.056.806-3.999 1.427-4.444 1.421-11.276 3.606-15.001 6.573-9.9427 7.92-18.0003 19-18.0003 19s12.1152-2.348 18.0003 2c2.308 1.705 3.776 18 3.776 18s7.24-22.318 13.869-27.117zm178.709 0c-4.779-3.46-19.054-15.665-21.794-18.771-.582-.66-11.56-7.112-11.56-7.112s27.099 3.157 32 6c.57.331 2.056.806 3.999 1.427 4.443 1.421 11.276 3.606 15.001 6.573 9.942 7.92 18 19 18 19s-12.116-2.348-18 2c-2.308 1.705-3.776 18-3.776 18s-7.241-22.318-13.87-27.117z" fill-rule="evenodd"/><path d="m239.262 74.5c.732 5.5071.498 17.9619 0 24-.384 4.648 7 15 7 15s-22.049-7-35-7c-14.111 0-35 7-35 7s7.154-10.257 7-15c-.202-6.1729-.993-19.3698 0-24 3.144-14.6625 13.309-31 28-31 19.33 0 25.894 15.1528 28 31z"/><path clip-rule="evenodd" d="m198.77 58.209c-3.909 4.8482-6.804 11.4672-8.175 17.8634-.277 1.2909-.387 4.8076-.283 9.6896.064 2.9795.184 5.908.291 8.5059l.001.0003v.0002c.059 1.4479.115 2.793.154 3.9871.04 1.2273-.114 2.4405-.361 3.5715 6.488-1.478 14.186-2.827 20.865-2.827 6.357 0 14.211 1.422 20.831 2.931-.269-1.261-.422-2.644-.306-4.0478.484-5.8625.666-17.6867.04-22.3953-.986-7.4172-2.917-13.6722-6.109-17.9348-2.878-3.8429-7.11-6.5531-14.456-6.5531-4.313 0-8.584 2.3616-12.492 7.209zm-45.287 58.608s0 0-.001.001l-.089-.767c.001.003.006.05.09.766zm.14-.08-.23-.686v-.001l-.087.011-.238.028c-.207.025-.508.061-.892.108-.766.094-1.863.23-3.192.403-2.656.346-6.26.838-10.033 1.422-3.754.582-7.764 1.269-11.201 2.009-1.715.369-3.377.771-4.837 1.204-1.23.364-2.767.877-4.122 1.613-.05.019-.12.046-.212.079-.378.137-.905.311-1.625.544-.287.092-.599.192-.931.298-1.257.402-2.809.898-4.409 1.452-3.804 1.316-9.228 3.388-13.0252 6.413-5.4742 4.36-10.3139 9.488-13.7244 13.425-1.7225 1.989-3.1192 3.718-4.0924 4.961-.4872.622-.8701 1.124-1.1365 1.477-.1333.177-.2375.318-.3112.417-.0369.05-.0662.09-.0876.119l-.0263.036-.0134.018c-.0005.001-.0011.002 6.0646 4.413l-6.0657-4.411-11.1959 15.396 18.67-3.618.002-.001h.0014l.0468-.009c.0531-.009.1468-.025.2767-.047.2606-.042.6627-.103 1.1723-.166 1.0311-.128 2.4405-.257 3.9723-.275 2.424-.028 4.2584.241 5.4401.607.3602 1.39.7096 3.269 1.0198 5.297.3074 2.011.5503 3.994.7172 5.487.083.743.1462 1.356.1883 1.779.021.211.0367.375.0469.483l.0112.12.0029.031s0 .001.0034 0l.4907.055c-7.5749 17.254-11.8003 36.521-11.8003 56.772 0 72.607 59.4703 135.137 123.0163 135 63.346-.136 121.984-62.439 121.984-135 0-20.622-4.382-40.222-12.22-57.716.041-.401.095-.919.163-1.524.167-1.493.41-3.476.717-5.487.31-2.028.66-3.907 1.02-5.297 1.182-.365 3.016-.635 5.44-.607 1.532.018 2.941.147 3.972.275.51.063.912.124 1.173.167.129.021.223.037.276.046l.038.007.004.001.005.001h.001l.003.001 18.669 3.618-11.195-15.396-6.066 4.411c6.066-4.411 6.065-4.412 6.064-4.413l-.001-.001-.012-.017-.026-.036-.038-.051-.05-.068c-.074-.099-.178-.239-.311-.416-.266-.354-.649-.856-1.137-1.478-.973-1.243-2.369-2.972-4.092-4.961-3.41-3.937-8.25-9.065-13.724-13.425-3.797-3.025-9.221-5.097-13.026-6.413-1.599-.553-3.151-1.05-4.407-1.451l-.001-.001c-.333-.106-.645-.206-.931-.298-.721-.232-1.247-.407-1.626-.544-.039-.014-.075-.027-.106-.039-.042-.016-.077-.029-.106-.04-1.354-.736-2.892-1.249-4.122-1.613-1.46-.433-3.121-.834-4.836-1.204-3.437-.74-7.448-1.427-11.202-2.009-3.772-.584-7.377-1.076-10.032-1.422-1.33-.173-2.426-.309-3.193-.403-.383-.047-.685-.083-.891-.108l-.239-.028-.087-.011v.001l-.071.21c-4.67-2.618-9.519-4.921-14.524-6.881l-.165-.231-.001-.002v-.001l-.001-.001-.005-.007-.044-.062c-.042-.061-.109-.156-.196-.283-.176-.254-.433-.633-.743-1.105-.627-.952-1.445-2.246-2.239-3.646-.81-1.428-1.509-2.816-1.967-3.981-.282-.717-.377-1.1138-.409-1.2476l-.003-.0135c.496-6.3319.758-19.0875-.066-25.2878-1.12-8.4299-3.523-17.6749-8.972-24.9506-5.763-7.6953-14.479-12.5615-26.462-12.5615-10.378 0-18.536 5.8072-24.169 12.7942-5.633 6.9862-9.392 15.8671-11.165 24.1334-.716 3.3394-.706 8.7363-.612 13.1535.065 3.0889.201 6.4016.312 9.1102v.0007.001c.053 1.2939.1 2.4498.132 3.3776-.003.0031-.008.024-.018.0636-.038.1582-.15.6153-.476 1.4338-.48 1.205-1.188 2.615-1.989 4.044-.787 1.404-1.59 2.697-2.202 3.645-.303.469-.553.845-.724 1.099-5.791 2.184-11.379 4.825-16.728 7.881zm-44.161 35.134c-.269.462-.535.933-.796 1.411-.285-.283-.6-.557-.947-.814-1.993-1.472-4.239-2.427-6.473-3.041 2.071-2.09 4.337-4.188 6.688-6.061 1.557-1.24 4.696-2.624 8.585-3.97 1.413-.489 2.74-.913 3.98-1.31h.001.001l.002-.001.008-.002.01-.004c.353-.113.698-.223 1.036-.332.73-.236 1.473-.479 2.117-.712.285-.103.719-.262 1.203-.473-3.499 2.948-6.698 5.537-8.368 6.746-3.012 2.18-5.359 5.663-7.047 8.563zm-12.2685 10.848c.0054.012.0117.028.0189.046-.0889-.167-.0882-.208-.0189-.046zm206.8205-19.411c-1.67-1.209-4.869-3.798-8.368-6.746.484.212.919.37 1.203.473.645.233 1.387.477 2.118.712.211.068.426.137.643.207.135.043.272.087.409.131l.004.001c1.24.396 2.568.821 3.981 1.31 3.889 1.346 7.028 2.731 8.585 3.97 2.351 1.873 4.617 3.971 6.689 6.061-2.234.614-4.481 1.569-6.473 3.041-.347.257-.662.531-.947.814-.262-.478-.527-.949-.796-1.411-1.688-2.9-4.036-6.383-7.048-8.563zm19.316 19.411c.069-.162.07-.121-.019.046.007-.018.014-.034.019-.046zm-220.068 71.281c0-65.494 48.706-117.5 107.5-117.5s107.5 52.006 107.5 117.5c0 65.51-53.112 119.884-107.016 120-54.141.116-107.984-54.536-107.984-120z" fill-rule="evenodd"/><path clip-rule="evenodd" d="m231.249 161.425c.358-1.363.736-2.8 1.277-4.056.558-1.295 1.576-2.596 2.571-3.869 2.459-3.143 4.784-6.116-.27-8.399-3.724-1.683-20.387-4.601-24.537-4.601-4.912 0-24.03 2.859-26.836 6.901-1.4 2.016.29 4.157 2.181 6.553.854 1.082 1.749 2.217 2.419 3.415.237.424.53 1.006.866 1.673 1.335 2.653 3.352 6.663 5.268 7.528 1.253.565 3.156-.093 5.618-.946 2.982-1.033 6.786-2.35 11.251-2.121 3.548.182 7.004 1.158 9.99 2.001 3.286.929 6.003 1.696 7.646 1.066 1.339-.514 1.917-2.712 2.556-5.145zm-96.591 22.243-.001.001c-2.694 5.453-7.737 15.662-5.964 18.393 1.192 1.835 7.638 1.404 12.914 1.051h.001c1.878-.126 3.609-.242 4.901-.242 1.456 0 3.774.766 6.281 1.594 4.602 1.52 9.838 3.25 11.535.836 1.085-1.543 1.293-5.041 1.515-8.758.272-4.573.565-9.479 2.534-11.488 3.084-3.145-7.026-22.475-12.147-25.104-3.911-2.007-20.047 20.621-21.056 22.675-.157.321-.328.666-.509 1.034l-.002.004zm22.73 54.48c0 3.355-1.083 8.709-2.25 10.5-1.688 2.592-12.644 3.375-16.312 3.375-1.724 0-3.631.687-5.464 1.348-2.658.959-5.16 1.862-6.723.527-2.262-1.931-2.254-9.65-2.251-12.807l.001-.318c0-6.213 5.526-9.375 13.499-9.375 7.974 0 19.5.537 19.5 6.75zm76.232 32.894c2.264-4.057 4.642-8.315 4.642-12.845 0-11.025-6.083-10.167-15.231-8.876-3.436.485-7.305 1.03-11.446 1.03-3.973 0-7.533-.448-10.624-.837-8.711-1.098-13.699-1.726-13.699 9.468 0 4.619 1.305 7.302 2.692 10.154 1.072 2.205 2.194 4.511 2.8 7.892 1.679 9.36 11.923 11.176 18.831 10.2 1.59-.224 3.049-.332 4.409-.432h.002.002c6.196-.455 10.328-.758 15.264-11.296.684-1.46 1.513-2.945 2.358-4.458zm-65.819 46.458c-6.627 0-22.679-16.992-25.854-22.4-.522-.888-1.322-2.069-2.205-3.372v-.001c-2.552-3.765-5.794-8.55-4.995-10.227 1.68-3.532 13.803-4.007 18.654-4 6.627.009 14.4 2.527 14.4 12.8 0 3.57.8 7.943 1.567 12.131 1.439 7.862 2.757 15.069-1.567 15.069zm111.622-22.4c-3.176 5.408-19.227 22.4-25.854 22.4-4.325 0-3.006-7.207-1.567-15.069.766-4.188 1.567-8.561 1.567-12.131 0-10.273 7.772-12.791 14.4-12.8 4.851-.007 16.974.468 18.654 4 .798 1.677-2.443 6.461-4.995 10.227-.883 1.303-1.683 2.485-2.205 3.373zm-57.053 25.253c.084-1.663.169-3.356.303-5.033.287-3.611-2.153-3.159-5.732-2.495-1.694.314-3.643.675-5.679.675-1.76 0-3.641-.273-5.394-.526-4.556-.66-8.235-1.193-6.606 3.526.553 1.602.367 4.334.171 7.205-.258 3.769-.532 7.78.829 9.795 2.386 3.533 7.212 4 10 4 2.724 0 8.157-.376 10-4 1.602-3.151 1.847-8.001 2.108-13.147zm47.729-71.164c-1.194-1.589-3.838-7.004-3.838-9.981 0-5.513 11.027-6.654 19.186-6.654 8.16 0 13.815 2.805 13.815 8.317 0 2.591-2.976 12.532-5.372 14.307-1.819 1.346-3.477.098-5.402-1.35-.935-.704-1.932-1.454-3.04-1.977-1.456-.688-4.282-.839-7.134-.991-3.605-.192-7.251-.387-8.215-1.671zm15.51-65.531c-.182-.367-.352-.712-.509-1.032-1.009-2.054-17.144-24.682-21.055-22.675-5.122 2.629-15.232 21.959-12.147 25.104 1.969 2.009 2.261 6.915 2.534 11.488.221 3.717.43 7.215 1.515 8.758 1.697 2.414 6.933.684 11.534-.836 2.507-.828 4.826-1.594 6.282-1.594 1.292 0 3.022.116 4.901.242 5.277.353 11.723.784 12.914-1.051 1.774-2.731-3.27-12.94-5.964-18.393zm-58.096 26.279c.671 3.777 1.379 7.762-.635 9.776-2.634 2.634-10.565 2.543-15.515 2.486-.653-.008-1.253-.015-1.783-.015-1.256 0-2.474.086-3.64.168-3.902.275-7.232.509-9.539-2.639-1.999-2.726-2.471-11.187-2.471-14.827 0-9.098 7.787-14.002 16.886-14.002 9.098 0 16.062 4.904 16.062 14.002 0 1.476.313 3.239.635 5.051z" fill-rule="evenodd"/><path d="m232.526 157.369-6.887-2.97zm-1.277 4.056-7.254-1.906zm3.848-7.925-5.908-4.62zm-.27-8.399-3.088 6.835zm-51.373 2.3-6.161-4.278zm2.181 6.553-5.887 4.646zm2.419 3.415 6.547-3.659zm.866 1.673 6.7-3.37zm5.268 7.528 3.085-6.836zm5.618-.946 2.454 7.087zm11.251-2.121.384-7.49zm9.99 2.001-2.039 7.218zm7.646 1.066-2.687-7.003zm-94.036 17.099 6.724 3.322.003-.005zm.001-.001-6.725-3.321-.002.004zm-5.965 18.394-6.29 4.085zm12.914 1.051v-7.5h-.25l-.25.017zm0 0v7.5h.259l.257-.018zm.001 0-.501-7.483h-.008l-.007.001zm11.182 1.352-2.352 7.122zm11.535.836 6.135 4.314zm1.515-8.758 7.486.446.014-.223v-.223zm0 0-7.487-.446-.013.223v.223zm2.534-11.488-5.355-5.251zm-12.147-25.104 3.424-6.672zm-21.056 22.675-6.732-3.305zm-.509 1.034-6.725-3.322-.001.002zm-.002.004 6.724 3.321.001-.002zm20.478 64.984-6.284-4.094zm-21.776 4.723-2.544-7.055-.01.003-.009.004zm0 0 2.545 7.056.009-.004.009-.003zm-6.723.527 4.87-5.703zm-2.251-12.807 7.5.008v-.003zm.001-.318 7.5.005v-.005zm109.231 30.269 6.548 3.656zm-10.589-21.721-1.048-7.427zm-22.07.193.937-7.442zm-11.007 19.622 6.744-3.281zm2.8 7.892 7.383-1.324h-.001zm18.831 10.2-1.049-7.426zm4.409-.432-.516-7.482-.016.001-.017.002zm.002 0-.494-7.483h-.011l-.011.001zm.002 0v-7.5h-.247l-.247.016zm0 0v7.5h.275l.274-.02zm15.264-11.296 6.792 3.182v-.001zm-89.315 19.6-6.468 3.798zm-2.205-3.372-6.221 4.19.006.008.006.009zm0-.001 6.22-4.19-.006-.008-.006-.009zm-4.995-10.227 6.772 3.222zm18.654-4 .011-7.5zm15.967 24.931 7.377-1.35zm110.055-7.331 6.468 3.798zm-27.421 7.331-7.377-1.35zm15.967-24.931-.011-7.5zm18.654 4-6.772 3.222zm-4.995 10.227-6.208-4.207-.116.171-.107.177zm0 0 6.209 4.207.116-.171.107-.177zm-58.955 23.593 7.476.595zm-.303 5.033 7.49.378zm-5.429-7.528-1.367-7.375zm-11.073.149 1.075-7.423zm-6.606 3.526 7.089-2.448zm.171 7.205-7.483-.511zm.829 9.795-6.216 4.197zm20 0-6.685-3.399zm49.837-84.311-5.997 4.505zm23.791 5.989 4.463 6.027zm-5.402-1.35-4.51 5.992zm-3.04-1.977-3.203 6.781zm-7.134-.991.4-7.489zm6.786-68.234-6.732 3.306zm.509 1.032 6.725-3.319-.001-.003zm-21.564-23.707-3.425-6.672zm-12.147 25.104 5.355-5.251zm2.534 11.488 7.486-.446zm1.515 8.758-6.136 4.314zm11.534-.836-2.352-7.121zm11.183-1.352-.501 7.483.017.001.016.001zm0 0 .5-7.483-.016-.002-.016-.001zm12.914-1.051 6.29 4.085zm-5.964-18.393-6.726 3.319.002.003zm-58.101 26.268 7.384-1.312-.095-.539-.174-.52zm0 0-7.384 1.312.096.54.173.52zm-.635 9.776 5.303 5.303zm-15.515 2.486.087-7.5h-.044-.043zm0 0-.087 7.499.043.001h.044zm-5.423.153.527 7.482zm-9.539-2.639 6.049-4.434zm29.238-65.314c-.806 1.869-1.317 3.876-1.644 5.12l14.508 3.811c.389-1.481.633-2.348.91-2.992zm3.55-5.519c-.825 1.056-2.531 3.157-3.55 5.519l13.774 5.939c-.005.012.016-.036.085-.155.068-.117.168-.274.311-.48.306-.44.673-.914 1.196-1.583zm2.55 3.056c.633.285.087.19-.536-.7-.344-.492-.636-1.122-.779-1.85-.141-.711-.102-1.318-.025-1.741.128-.714.374-.953.089-.508-.259.403-.632.891-1.299 1.743l11.816 9.24c.563-.719 1.402-1.782 2.113-2.891.684-1.068 1.656-2.783 2.042-4.918.442-2.449.06-5.209-1.669-7.679-1.532-2.187-3.682-3.511-5.577-4.366zm-21.449-3.936c1.284 0 5.822.588 11.082 1.548 2.487.454 4.914.95 6.902 1.422.996.236 1.833.454 2.487.646.715.21.989.325.978.32l6.175-13.67c-1.673-.756-4.076-1.393-6.178-1.891-2.313-.549-5.009-1.098-7.671-1.584-5.04-.919-10.909-1.791-13.775-1.791zm-20.676 3.679c-.565.813-1.053.992-.638.751.3-.174.866-.446 1.763-.777 1.788-.661 4.204-1.309 6.901-1.882 5.516-1.171 10.944-1.771 12.65-1.771v-15c-3.206 0-9.793.83-15.766 2.098-3.047.648-6.243 1.472-8.983 2.484-1.367.505-2.793 1.12-4.095 1.876-1.187.688-2.887 1.842-4.153 3.665zm1.908-2.372c-.5-.633-.832-1.056-1.099-1.435-.269-.38-.303-.482-.261-.388.046.105.29.681.275 1.581-.017 1.017-.356 1.941-.823 2.614l-12.321-8.556c-2.665 3.838-2.001 7.843-.834 10.463.948 2.128 2.535 4.059 3.289 5.014zm3.079 4.403c-1.011-1.81-2.297-3.412-3.079-4.403l-11.774 9.293c.927 1.175 1.431 1.841 1.759 2.428zm1.019 1.962c-.306-.609-.684-1.362-1.019-1.962l-13.094 7.318c.139.248.347.658.713 1.385zm1.653 4.062c.911.411 1.256.886 1.075.683-.106-.119-.334-.412-.671-.945-.682-1.081-1.36-2.415-2.057-3.8l-13.4 6.741c.638 1.268 1.636 3.265 2.775 5.068.574.91 1.293 1.947 2.146 2.906.778.875 2.094 2.176 3.962 3.019zm.079-1.197c-.637.22-1.122.388-1.556.526-.434.137-.684.202-.818.231-.145.031.008-.017.355-.013.369.004 1.089.069 1.94.453l-6.17 13.672c2.866 1.293 5.628.852 7.006.557 1.489-.317 3.065-.876 4.151-1.252zm14.089-2.524c-6.094-.312-11.17 1.513-14.089 2.524l4.908 14.174c3.046-1.054 5.577-1.863 8.413-1.718zm11.645 2.274c-2.867-.81-7.121-2.043-11.645-2.274l-.768 14.98c2.573.132 5.231.852 8.335 1.729zm2.92 1.28c.689-.264 1.175-.267 1.231-.267.064 0-.056.005-.444-.064-.375-.066-.863-.176-1.512-.344-.65-.169-1.356-.368-2.195-.605l-4.078 14.435c1.529.432 3.428.976 5.172 1.285 1.547.274 4.366.652 7.199-.435zm-2.011-.048c-.166.633-.292 1.109-.417 1.532-.126.424-.206.637-.242.722-.046.108.049-.159.37-.561.348-.436 1.082-1.177 2.3-1.645l5.373 14.005c3.679-1.411 5.203-4.623 5.753-5.911.653-1.53 1.095-3.281 1.371-4.331zm-82.611 27.467-13.453-6.635zm-6.401 10.991c.773 1.19.83 2.206.838 2.373.011.23-.021.206.05-.175.142-.764.504-1.973 1.128-3.595 1.232-3.199 3.007-6.805 4.382-9.589l-13.448-6.644c-1.319 2.669-3.412 6.894-4.933 10.845-.752 1.954-1.487 4.15-1.875 6.238-.195 1.046-.351 2.31-.287 3.642.061 1.27.349 3.202 1.565 5.075zm6.124-2.347c-2.744.183-5.274.345-7.249.282-.463-.015-.836-.041-1.127-.073-.142-.016-.252-.032-.333-.045-.039-.007-.069-.013-.09-.017s-.03-.007-.029-.006c.001 0 .014.003.04.011.025.008.066.02.119.04.101.037.282.109.513.234.428.233 1.302.797 2.032 1.921l-12.58 8.17c1.935 2.979 5.026 3.875 6.261 4.182 1.606.398 3.296.529 4.714.575 2.866.092 6.197-.139 8.73-.308zm.5-.017v15zm-.515.018h-.001l1.032 14.964h.001zm5.417-.26c-1.601 0-3.623.14-5.402.259l1.001 14.966c1.978-.132 3.417-.225 4.401-.225zm8.633 1.973c-1.203-.398-2.605-.863-3.902-1.219-1.175-.322-2.936-.754-4.731-.754v15c-.249 0-.315-.028-.112.01.18.033.462.097.874.21.852.234 1.864.565 3.167.996zm3.047 3.643c.998-1.418 2.331-1.851 2.853-1.951.394-.075.395.009-.262-.091-.588-.09-1.375-.275-2.393-.571-1.011-.293-2.071-.642-3.245-1.03l-4.704 14.243c2.121.701 5.228 1.75 8.075 2.185 1.44.22 3.356.379 5.352-.004 2.125-.407 4.749-1.528 6.595-4.153zm.164-4.89c-.116 1.945-.209 3.423-.374 4.596-.079.565-.153.88-.192 1.014-.053.182.019-.174.402-.72l12.271 8.628c1.669-2.374 2.151-5.252 2.373-6.833.266-1.891.388-4.021.493-5.793zm-.013.446h15zm4.679-16.739c-2.718 2.772-3.559 6.551-3.939 8.759-.438 2.541-.597 5.354-.727 7.534l14.973.892c.143-2.394.267-4.32.535-5.877.13-.752.258-1.189.337-1.398.091-.239.01.104-.469.593zm-10.217-13.18c-.42-.216-.369-.293.153.246.446.461 1.023 1.152 1.695 2.077 1.342 1.848 2.783 4.249 4.022 6.721 1.258 2.512 2.15 4.786 2.565 6.387.214.827.21 1.137.211 1.048.001-.063.007-.427.168-.966.166-.556.548-1.461 1.403-2.333l10.71 10.503c2.416-2.464 2.702-5.521 2.718-7.047.019-1.758-.309-3.495-.689-4.964-.774-2.99-2.151-6.303-3.675-9.346-1.543-3.081-3.397-6.202-5.295-8.816-.948-1.306-1.977-2.582-3.052-3.693-.999-1.033-2.384-2.29-4.085-3.162zm-10.898 19.308c-.141.286-.089.146.526-.769.489-.727 1.168-1.703 1.99-2.842 1.644-2.28 3.782-5.11 5.987-7.796 2.251-2.742 4.384-5.102 6.04-6.593.395-.356.718-.62.966-.806.26-.195.364-.247.323-.225-.003.001-.412.226-1.137.348-.769.129-2.217.185-3.797-.625l6.849-13.345c-4.022-2.065-7.773-.246-8.906.35-1.628.858-3.122 2.064-4.334 3.156-2.502 2.251-5.199 5.301-7.597 8.222-2.444 2.976-4.774 6.063-6.56 8.54-.895 1.24-1.672 2.354-2.273 3.249-.476.708-1.149 1.724-1.542 2.525zm-.518 1.05c.18-.366.356-.72.518-1.05l-13.465-6.611c-.152.31-.319.648-.502 1.017zm-.001.001.002-.003-13.451-6.64-.002.004zm-.003.006.002-.004-13.449-6.643-.002.005zm20.041 65.752c1.419-2.178 2.195-5.206 2.617-7.214.489-2.326.848-5.04.848-7.379h-15c0 1.016-.183 2.656-.527 4.293-.166.789-.343 1.453-.502 1.935-.196.596-.242.542-.005.178zm-22.597 6.782c2.18 0 6.215-.22 10.029-.801 1.894-.289 4.003-.707 5.896-1.334.947-.313 2.038-.743 3.092-1.35.979-.563 2.461-1.58 3.58-3.297l-12.569-8.187c.696-1.069 1.467-1.494 1.509-1.518.118-.068.047-.011-.329.113-.75.249-1.926.513-3.44.744-3.004.458-6.28.63-7.768.63zm-2.919.904c.968-.35 1.629-.584 2.225-.749.594-.164.776-.155.694-.155v-15c-3.3 0-6.534 1.261-8.008 1.793zm.018-.007-5.126-14.097zm-14.157-.819c3.192 2.726 6.87 2.63 8.969 2.305 2.016-.312 4.042-1.073 5.17-1.479l-5.089-14.111c-.696.251-1.198.431-1.654.574-.453.142-.666.184-.722.193-.065.01.272-.056.845.046.654.116 1.478.43 2.222 1.066zm-4.88-18.517c-.001 1.539-.011 4.651.321 7.685.165 1.508.44 3.265.947 4.936.435 1.433 1.377 3.987 3.612 5.896l9.741-11.406c.63.538.915 1.038.989 1.176.084.156.071.174.011-.024-.127-.419-.273-1.151-.389-2.207-.229-2.099-.233-4.424-.232-6.041zm.001-.316-.001.318 15 .01.001-.318zm20.999-16.87c-4.818 0-9.822.93-13.866 3.595-4.406 2.903-7.133 7.559-7.133 13.28h15c0-.218.024-.346.038-.404.007-.03.013-.048.017-.057.003-.008.005-.013.006-.015.002-.001.004-.006.009-.013.006-.008.017-.022.038-.043.039-.042.123-.12.278-.223.713-.469 2.458-1.12 5.613-1.12zm27 14.25c0-4.303-2.164-7.559-4.862-9.628-2.424-1.858-5.3-2.819-7.683-3.378-4.816-1.131-10.481-1.244-14.455-1.244v15c4 0 8.085.156 11.026.846 1.495.352 1.999.691 1.985.68-.287-.22-1.011-1.079-1.011-2.276zm65.874 20.049c0 2.221-1.197 4.722-3.691 9.189l13.097 7.312c2.036-3.646 5.594-9.663 5.594-16.501zm-6.683-1.45c2.384-.336 4.111-.573 5.553-.643 1.481-.071 1.892.089 1.804.056-.412-.155-.85-.572-.997-.872-.001-.002.323.714.323 2.909h15c0-3.317-.436-6.628-1.864-9.53-1.574-3.2-4.104-5.389-7.18-6.546-2.752-1.035-5.577-1.107-7.81-.999-2.271.109-4.735.463-6.925.772zm-12.494 1.104c4.742 0 9.107-.626 12.494-1.104l-2.096-14.853c-3.486.492-6.858.957-10.398.957zm-11.562-.896c3.065.386 7.059.896 11.562.896v-15c-3.443 0-6.569-.386-9.687-.779zm-5.261 2.027c0-2.371.284-3.334.372-3.553.021-.052-.045.13-.282.391-.249.274-.543.477-.8.598-.39.185-.328.008.924.036 1.227.028 2.754.212 5.047.501l1.875-14.883c-2.062-.259-4.425-.565-6.583-.614-2.133-.048-4.952.112-7.678 1.401-6.609 3.127-7.875 10.068-7.875 16.123zm1.936 6.873c-.721-1.482-1.143-2.379-1.449-3.363-.276-.885-.487-1.958-.487-3.51h-15c0 6.403 1.957 10.37 3.447 13.434zm3.438 9.849c-.803-4.479-2.337-7.585-3.438-9.849l-13.489 6.561c1.044 2.147 1.754 3.653 2.163 5.936zm10.4 4.098c-2.505.354-5.375.134-7.463-.729-1.789-.74-2.639-1.712-2.936-3.369l-14.765 2.648c1.382 7.703 6.493 12.319 11.972 14.583 5.181 2.142 10.887 2.342 15.29 1.719zm4.909-.485c-1.341.098-3.037.221-4.909.485l2.098 14.852c1.307-.184 2.53-.276 3.91-.378zm.035-.003h-.002l1.032 14.965h.002zm.024-.002-.002.001.987 14.967h.002zm.494-.016v15zm8.472-6.978c-2.205 4.708-3.664 5.844-4.217 6.174-.65.389-1.396.574-4.804.824l1.098 14.96c2.788-.205 7.206-.399 11.405-2.91 4.295-2.569 7.371-6.854 10.102-12.684zm2.601-4.932c-.817 1.464-1.783 3.187-2.601 4.932l13.584 6.363c.55-1.174 1.242-2.421 2.114-3.983zm-91.592 31.512c2.141 3.645 7.579 9.833 12.964 14.895 2.778 2.612 5.83 5.199 8.774 7.185 1.472.993 3.058 1.932 4.679 2.646 1.535.675 3.604 1.376 5.905 1.376v-15c.644 0 .762.17.139-.105-.538-.237-1.318-.667-2.333-1.352-2.029-1.369-4.431-3.368-6.891-5.68-5.092-4.787-9.267-9.798-10.302-11.561zm-1.946-2.963c.94 1.387 1.577 2.333 1.946 2.963l12.935-7.596c-.674-1.147-1.638-2.563-2.463-3.781zm-.012-.018v.001l12.441-8.38v-.001zm-5.547-17.639c-1.505 3.163-.619 6.216-.303 7.229.45 1.443 1.133 2.822 1.742 3.931 1.232 2.247 2.898 4.694 4.12 6.496l12.417-8.414c-1.33-1.963-2.56-3.791-3.387-5.297-.193-.352-.336-.638-.438-.861-.106-.231-.137-.33-.133-.316.004.011.025.08.049.198.024.116.058.318.074.591.028.488.018 1.596-.596 2.887zm25.438-8.278c-2.587-.004-7.241.116-11.606.751-2.153.313-4.574.797-6.742 1.607-1.729.646-5.324 2.207-7.09 5.92l13.545 6.444c-.524 1.101-1.222 1.621-1.389 1.738-.183.128-.175.083.182-.05.73-.272 1.957-.569 3.652-.815 3.33-.484 7.163-.598 9.426-.595zm21.889 20.3c0-7.33-2.941-12.958-7.952-16.419-4.542-3.138-9.891-3.875-13.937-3.881l-.022 15c2.582.004 4.432.53 5.433 1.222.418.288.713.617.939 1.074.238.48.539 1.39.539 3.004zm1.444 10.781c-.805-4.402-1.444-8.036-1.444-10.781h-15c0 4.395.962 9.508 1.689 13.481zm-8.944 23.919c1.602 0 3.375-.342 5.065-1.299 1.701-.964 2.9-2.315 3.698-3.694 1.446-2.5 1.661-5.232 1.681-7.01.041-3.676-.834-8.276-1.5-11.916l-14.755 2.7c.366 1.997.691 3.78.926 5.398.239 1.647.339 2.837.33 3.651-.011 1.007-.187.568.335-.335.336-.581.94-1.307 1.891-1.846.94-.532 1.808-.649 2.329-.649zm85.768 0c2.301 0 4.37-.701 5.905-1.377 1.621-.713 3.207-1.652 4.679-2.645 2.943-1.986 5.995-4.573 8.774-7.185 5.384-5.062 10.823-11.25 12.964-14.895l-12.935-7.596c-1.035 1.763-5.21 6.774-10.303 11.561-2.459 2.312-4.861 4.311-6.89 5.68-1.015.685-1.795 1.115-2.333 1.352-.623.275-.505.105.139.105zm-8.944-23.919c-.667 3.64-1.541 8.24-1.5 11.916.02 1.778.234 4.51 1.681 7.01.798 1.379 1.997 2.73 3.698 3.694 1.69.957 3.463 1.299 5.065 1.299v-15c.521 0 1.388.117 2.329.649.951.539 1.555 1.265 1.891 1.846.522.903.346 1.342.335.335-.009-.814.091-2.004.33-3.651.235-1.618.56-3.401.926-5.398zm1.444-10.781c0 2.745-.639 6.379-1.444 10.781l14.755 2.7c.727-3.973 1.689-9.086 1.689-13.481zm21.889-20.3c-4.046.006-9.396.743-13.937 3.881-5.011 3.461-7.952 9.089-7.952 16.419h15c0-1.614.301-2.524.539-3.004.226-.457.521-.786.939-1.074 1.001-.692 2.851-1.218 5.432-1.222zm25.438 8.278c-1.767-3.713-5.361-5.274-7.09-5.92-2.168-.81-4.59-1.294-6.742-1.607-4.365-.635-9.019-.755-11.606-.751l.021 15c2.264-.003 6.097.111 9.427.595 1.694.246 2.922.543 3.651.815.357.133.365.178.182.05-.166-.117-.865-.637-1.388-1.738zm-5.559 17.656c1.222-1.802 2.888-4.249 4.12-6.496.609-1.109 1.292-2.488 1.742-3.931.315-1.013 1.202-4.066-.303-7.229l-13.545 6.444c-.614-1.291-.624-2.399-.596-2.887.016-.273.05-.475.074-.591.024-.118.045-.187.049-.198.004-.014-.027.085-.133.316-.102.223-.245.509-.438.861-.827 1.506-2.057 3.334-3.387 5.297zm.223-.348-12.863-7.718v.001zm-2.169 3.312c.369-.63 1.006-1.576 1.946-2.964l-12.418-8.414c-.825 1.219-1.79 2.635-2.463 3.782zm-70.695 15.827c-.143 1.803-.234 3.605-.317 5.249l14.981.757c.085-1.68.166-3.265.289-4.816zm3.112 5.474c.973-.18 1.499-.273 1.891-.316.469-.051.036.062-.761-.137-.474-.119-1.166-.368-1.891-.891-.755-.543-1.349-1.241-1.753-1.994-.735-1.368-.577-2.395-.598-2.136l14.953 1.19c.123-1.547.083-3.872-1.14-6.15-1.429-2.662-3.787-4.035-5.934-4.572-1.819-.454-3.514-.329-4.501-.222-1.063.116-2.185.328-3 .479zm-7.046.801c2.827 0 5.431-.502 7.046-.801l-2.734-14.749c-1.773.329-3.068.55-4.312.55zm-6.469-.604c1.64.238 4.072.604 6.469.604v-15c-1.122 0-2.454-.179-4.319-.449zm1.558-6.344c-.078-.228-.032-.165-.002.12s.066.994-.219 1.914c-.311 1.002-.916 1.965-1.779 2.714-.803.697-1.581.996-2.01 1.121-.686.2-.951.088-.194.142.637.046 1.434.158 2.646.333l2.15-14.845c-1.065-.154-2.437-.357-3.721-.449-1.163-.084-3.1-.157-5.072.416-2.349.684-5.219 2.486-6.348 6.127-.901 2.908-.206 5.634.371 7.303zm.564 10.164c.094-1.37.211-3.036.213-4.577.002-1.403-.07-3.54-.777-5.587l-14.178 4.896c-.105-.303-.1-.426-.079-.239.017.165.035.454.034.906-.001.943-.076 2.078-.178 3.579zm-.437 5.087c.349.517.395.851.361.7-.029-.129-.081-.453-.105-1.044-.05-1.241.045-2.757.181-4.743l-14.965-1.022c-.122 1.783-.292 4.157-.203 6.368.078 1.958.377 5.288 2.299 8.135zm3.784.697c-1.051 0-2.131-.098-2.987-.356-.84-.253-.889-.477-.797-.341l-12.432 8.394c2.477 3.669 6.035 5.445 8.902 6.309 2.85.859 5.577.994 7.314.994zm3.315.101c.45-.887 1.015-.754-.03-.457-.94.266-2.169.356-3.285.356v15c1.608 0 4.458-.098 7.376-.925 2.814-.798 7.016-2.665 9.309-7.176zm1.302-10.127c-.134 2.646-.249 4.831-.497 6.728-.255 1.951-.58 2.955-.805 3.399l13.37 6.798c1.377-2.707 1.975-5.703 2.309-8.252.34-2.602.478-5.416.604-7.916zm43.882-80.766c0 3.103 1.207 6.397 2.059 8.42.915 2.175 2.154 4.564 3.282 6.066l11.993-9.01c.037.05-.143-.202-.485-.842-.308-.575-.651-1.285-.965-2.033-.319-.757-.569-1.459-.73-2.033-.182-.65-.154-.8-.154-.568zm26.686-14.154c-4.272 0-9.823.284-14.526 1.497-2.314.598-5.044 1.571-7.346 3.319-2.502 1.901-4.814 5.025-4.814 9.338h15c0 1.557-.933 2.471-1.112 2.607-.033.024.09-.073.469-.234.368-.157.879-.332 1.55-.505 2.85-.736 6.893-1.022 10.779-1.022zm21.315 15.817c0-5.881-3.259-10.242-7.627-12.738-4.005-2.288-8.922-3.079-13.688-3.079v15c3.395 0 5.384.611 6.247 1.104.365.208.337.285.221.102-.143-.225-.153-.422-.153-.389zm-8.409 20.334c2.155-1.595 3.451-4.015 4.085-5.271.818-1.623 1.539-3.451 2.128-5.162.596-1.731 1.112-3.505 1.488-5.079.325-1.36.708-3.216.708-4.822h-15c0-.31.011.049-.297 1.336-.257 1.074-.634 2.382-1.082 3.682-.455 1.321-.926 2.472-1.34 3.293-.207.411-.344.627-.391.695-.098.141.138-.255.775-.727zm-14.375-1.385c.677.51 2.522 1.982 4.661 2.769 1.249.46 2.879.813 4.75.602 1.913-.215 3.585-.965 4.964-1.986l-8.926-12.055c.47-.348 1.253-.748 2.283-.864.988-.112 1.742.091 2.109.226.32.118.417.21.197.065-.223-.147-.495-.348-1.018-.742zm-1.733-1.188c.299.142.695.407 1.733 1.188l9.02-11.985c-.831-.625-2.43-1.861-4.347-2.766zm-4.33-.283c1.485.08 2.662.145 3.636.257.47.054.777.106.957.146.212.047.068.037-.263-.12l6.406-13.563c-1.925-.909-4.06-1.213-5.392-1.366-1.516-.173-3.179-.259-4.545-.332zm-13.813-4.655c1.482 1.972 3.432 2.872 4.528 3.286 1.214.459 2.439.708 3.421.863 1.943.305 4.178.416 5.864.506l.799-14.978c-.918-.049-1.737-.093-2.503-.151-.769-.059-1.37-.123-1.829-.195-.501-.079-.594-.131-.447-.076.09.034.359.142.715.373.358.23.915.657 1.445 1.362zm14.266-67.762c.162.329.336.683.516 1.048l13.449-6.644c-.182-.369-.349-.705-.501-1.016zm-10.899-19.308c-1.579.81-3.027.754-3.797.625-.725-.122-1.133-.347-1.137-.348-.04-.022.063.03.323.225.249.186.571.45.967.806 1.655 1.491 3.788 3.851 6.039 6.593 2.205 2.686 4.343 5.516 5.988 7.796.821 1.139 1.5 2.115 1.989 2.842.615.915.667 1.055.527.769l13.464-6.611c-.393-.801-1.065-1.817-1.541-2.525-.602-.895-1.379-2.009-2.273-3.249-1.787-2.477-4.117-5.564-6.56-8.54-2.398-2.921-5.096-5.971-7.597-8.222-1.213-1.092-2.707-2.298-4.334-3.156-1.133-.596-4.885-2.415-8.907-.35zm-10.216 13.18c.854.872 1.236 1.777 1.402 2.333.162.539.168.903.168.966.001.089-.002-.221.212-1.048.414-1.601 1.307-3.875 2.565-6.387 1.238-2.472 2.68-4.873 4.021-6.721.672-.925 1.249-1.616 1.696-2.077.521-.539.572-.462.152-.246l-6.849-13.345c-1.7.872-3.085 2.129-4.085 3.162-1.075 1.111-2.103 2.387-3.052 3.693-1.897 2.614-3.751 5.735-5.295 8.816-1.524 3.043-2.901 6.356-3.675 9.346-.38 1.469-.707 3.206-.689 4.964.016 1.526.303 4.583 2.718 7.047zm4.665 16.293c-.13-2.18-.288-4.993-.726-7.534-.381-2.208-1.222-5.987-3.939-8.759l-10.711 10.503c-.479-.489-.559-.832-.469-.593.079.209.207.646.337 1.398.268 1.557.392 3.483.535 5.877zm.164 4.89c.384.546.455.902.402.72-.039-.134-.112-.449-.192-1.014-.165-1.173-.258-2.651-.374-4.596l-14.973.892c.106 1.772.228 3.902.493 5.793.223 1.581.704 4.459 2.373 6.833zm3.047-3.643c-1.174.388-2.233.737-3.244 1.03-1.019.296-1.806.481-2.394.571-.656.1-.655.016-.262.091.522.1 1.856.533 2.853 1.951l-12.271 8.628c1.846 2.625 4.471 3.746 6.595 4.153 1.997.383 3.913.224 5.353.004 2.846-.435 5.953-1.484 8.075-2.185zm8.634-1.973c-1.795 0-3.557.432-4.732.754-1.297.356-2.698.821-3.902 1.219l4.705 14.243c1.303-.431 2.314-.762 3.167-.996.411-.113.694-.177.874-.21.202-.038.136-.01-.112-.01zm5.401.259c-1.779-.119-3.8-.259-5.401-.259v15c.983 0 2.422.093 4.4.225zm-.032-.003-.936 14.971zm6.157 2.35c.729-1.124 1.604-1.688 2.031-1.921.231-.125.412-.197.513-.234.054-.02.094-.032.119-.04.026-.008.04-.011.04-.011.001-.001-.008.002-.029.006-.02.004-.05.01-.09.017-.08.013-.19.029-.333.045-.291.032-.664.058-1.127.073-1.974.063-4.505-.099-7.249-.282l-1 14.966c2.533.169 5.863.4 8.729.308 1.418-.046 3.108-.177 4.714-.575 1.235-.307 4.326-1.203 6.261-4.182zm-6.399-10.986c1.375 2.783 3.151 6.39 4.382 9.589.624 1.622.986 2.831 1.128 3.595.071.381.039.405.051.175.008-.167.065-1.183.838-2.373l12.579 8.17c1.217-1.873 1.504-3.805 1.565-5.075.064-1.332-.091-2.596-.286-3.642-.389-2.088-1.124-4.284-1.876-6.238-1.521-3.951-3.614-8.176-4.933-10.845zm-.007-.014.005.011 13.452-6.639-.006-.01zm-44.255 20.589-14.23 4.743zm-2.447 17.45c3.15-3.15 3.534-7.184 3.521-9.57-.013-2.487-.499-5.099-.805-6.821l-14.768 2.625c.172.97.316 1.783.422 2.551.105.765.149 1.322.152 1.724.002.419-.044.458.012.264.07-.243.292-.812.859-1.379zm-20.904 4.682c2.4.028 6.048.078 9.474-.272 1.721-.176 3.636-.474 5.462-1.028 1.719-.52 4.056-1.469 5.968-3.382l-10.607-10.606c.596-.595.954-.568.29-.367-.557.169-1.428.337-2.637.461-2.436.249-5.228.224-7.777.195zm.086.001v-15zm-1.783-.015c.478 0 1.032.006 1.696.014l.173-14.999c-.64-.007-1.287-.015-1.869-.015zm-3.113.15c1.201-.085 2.161-.15 3.113-.15v-15c-1.561 0-3.036.107-4.167.187zm-16.115-5.687c5.118 6.983 13.092 5.899 16.115 5.687l-1.054-14.963c-1.021.071-1.739.12-2.381.128-.623.008-.94-.029-1.082-.055-.108-.02.009-.012.21.108.218.13.311.257.29.227zm-3.922-19.261c0 2.062.129 5.409.545 8.697.208 1.642.505 3.422.945 5.088.394 1.496 1.085 3.639 2.432 5.476l12.098-8.868c.347.474.23.537-.026-.434-.212-.801-.407-1.875-.567-3.143-.321-2.535-.427-5.238-.427-6.816zm24.386-21.502c-5.8 0-11.739 1.551-16.417 5.136-4.88 3.739-7.969 9.413-7.969 16.366h15c0-2.145.804-3.472 2.093-4.46 1.49-1.142 3.994-2.042 7.293-2.042zm23.562 21.502c0-6.649-2.638-12.332-7.36-16.209-4.542-3.73-10.387-5.293-16.202-5.293v15c3.282 0 5.469.888 6.683 1.885 1.035.85 1.879 2.168 1.879 4.617zm.519 3.739c-.358-2.019-.519-3.065-.519-3.739h-15c0 2.277.466 4.759.751 6.363z"/></g></svg>